{
	"patcher" : 	{
		"fileversion" : 1,
		"appversion" : 		{
			"major" : 8,
			"minor" : 1,
			"revision" : 3,
			"architecture" : "x64",
			"modernui" : 1
		}
,
		"classnamespace" : "box",
		"rect" : [ 457.0, 136.0, 1088.0, 579.0 ],
		"bglocked" : 0,
		"openinpresentation" : 0,
		"default_fontsize" : 12.0,
		"default_fontface" : 0,
		"default_fontname" : "Arial",
		"gridonopen" : 1,
		"gridsize" : [ 15.0, 15.0 ],
		"gridsnaponopen" : 1,
		"objectsnaponopen" : 1,
		"statusbarvisible" : 2,
		"toolbarvisible" : 1,
		"lefttoolbarpinned" : 0,
		"toptoolbarpinned" : 0,
		"righttoolbarpinned" : 0,
		"bottomtoolbarpinned" : 0,
		"toolbars_unpinned_last_save" : 0,
		"tallnewobj" : 0,
		"boxanimatetime" : 200,
		"enablehscroll" : 1,
		"enablevscroll" : 1,
		"devicewidth" : 0.0,
		"description" : "",
		"digest" : "",
		"tags" : "",
		"style" : "",
		"subpatcher_template" : "",
		"boxes" : [ 			{
				"box" : 				{
					"id" : "obj-26",
					"maxclass" : "comment",
					"numinlets" : 1,
					"numoutlets" : 0,
					"patching_rect" : [ 121.0, 385.0, 150.0, 20.0 ],
					"text" : "attrui object"
				}

			}
, 			{
				"box" : 				{
					"id" : "obj-23",
					"maxclass" : "comment",
					"numinlets" : 1,
					"numoutlets" : 0,
					"patching_rect" : [ 687.0, 100.0, 150.0, 20.0 ],
					"text" : "jit.playlist"
				}

			}
, 			{
				"box" : 				{
					"clipheight" : 59.0,
					"data" : 					{
						"clips" : [ 							{
								"absolutepath" : "/Users/s3g/Desktop/Max_crashCourse_3/3_jitter_openGL/ranch2.mp4",
								"filename" : "ranch2.mp4",
								"filekind" : "moviefile",
								"loop" : 0,
								"content_state" : 								{
									"outputmode" : [ 1 ],
									"out_name" : [ "u003013287" ],
									"dim" : [ 1, 1 ],
									"position" : [ 0.0 ],
									"engine" : [ "avf" ],
									"adapt" : [ 1 ],
									"loopreport" : [ 0 ],
									"vol" : [ 1.0 ],
									"automatic" : [ 0 ],
									"loopstart" : [ 0 ],
									"dstrect" : [ 0, 0, 1, 1 ],
									"seamless_loopcount" : [ 32 ],
									"usedstrect" : [ 0 ],
									"texture_name" : [ "u245013339" ],
									"moviefile" : [ "" ],
									"looppoints_secs" : [ 0.0, 0.0 ],
									"time_secs" : [ 0.0 ],
									"framereport" : [ 0 ],
									"time" : [ 0 ],
									"autostart" : [ 1 ],
									"rate" : [ 1.0 ],
									"colormode" : [ "argb" ],
									"looppoints" : [ 0, 0 ],
									"loopend" : [ 0 ],
									"unique" : [ 0 ],
									"srcrect" : [ 0, 0, 1, 1 ],
									"drawto" : [ "" ],
									"usesrcrect" : [ 0 ],
									"looppoints_ms" : [ 0, 0 ],
									"output_texture" : [ 0 ],
									"time_ms" : [ 0 ],
									"interp" : [ 0 ]
								}

							}
, 							{
								"absolutepath" : "/Users/s3g/Desktop/Max_crashCourse_3/3_jitter_openGL/a000080_512kb.mp4",
								"filename" : "a000080_512kb.mp4",
								"filekind" : "moviefile",
								"loop" : 1,
								"content_state" : 								{
									"outputmode" : [ 1 ],
									"out_name" : [ "u003013287" ],
									"dim" : [ 1, 1 ],
									"position" : [ 0.0 ],
									"engine" : [ "avf" ],
									"adapt" : [ 1 ],
									"loopreport" : [ 0 ],
									"vol" : [ 1.0 ],
									"automatic" : [ 0 ],
									"loopstart" : [ 0 ],
									"dstrect" : [ 0, 0, 1, 1 ],
									"seamless_loopcount" : [ 32 ],
									"usedstrect" : [ 0 ],
									"texture_name" : [ "u245013339" ],
									"moviefile" : [ "" ],
									"looppoints_secs" : [ 0.0, 0.0 ],
									"time_secs" : [ 0.0 ],
									"framereport" : [ 0 ],
									"time" : [ 0 ],
									"autostart" : [ 1 ],
									"rate" : [ 1.0 ],
									"colormode" : [ "argb" ],
									"looppoints" : [ 0, 0 ],
									"loopend" : [ 0 ],
									"unique" : [ 0 ],
									"srcrect" : [ 0, 0, 1, 1 ],
									"drawto" : [ "" ],
									"usesrcrect" : [ 0 ],
									"looppoints_ms" : [ 0, 0 ],
									"output_texture" : [ 0 ],
									"time_ms" : [ 0 ],
									"interp" : [ 0 ]
								}

							}
, 							{
								"absolutepath" : "dvducks.mov",
								"filename" : "dvducks.mov",
								"filekind" : "moviefile",
								"loop" : 1,
								"content_state" : 								{
									"outputmode" : [ 1 ],
									"out_name" : [ "u481000018" ],
									"dim" : [ 1, 1 ],
									"position" : [ 0 ],
									"engine" : [ "avf" ],
									"adapt" : [ 1 ],
									"loopreport" : [ 0 ],
									"vol" : [ 1 ],
									"automatic" : [ 0 ],
									"loopstart" : [ 0 ],
									"dstrect" : [ 0, 0, 1, 1 ],
									"seamless_loopcount" : [ 32 ],
									"usedstrect" : [ 0 ],
									"texture_name" : [ "u809000016" ],
									"moviefile" : [ "" ],
									"looppoints_secs" : [ 0.0, 0.0 ],
									"time_secs" : [ 0 ],
									"framereport" : [ 0 ],
									"time" : [ 0 ],
									"autostart" : [ 1 ],
									"rate" : [ 1 ],
									"colormode" : [ "argb" ],
									"looppoints" : [ 0, 0 ],
									"loopend" : [ 0 ],
									"unique" : [ 0 ],
									"srcrect" : [ 0, 0, 1, 1 ],
									"drawto" : [ "" ],
									"usesrcrect" : [ 0 ],
									"looppoints_ms" : [ 0, 0 ],
									"output_texture" : [ 0 ],
									"time_ms" : [ 0 ],
									"interp" : [ 0 ]
								}

							}
, 							{
								"absolutepath" : "garbage.mov",
								"filename" : "garbage.mov",
								"filekind" : "moviefile",
								"loop" : 1,
								"content_state" : 								{
									"outputmode" : [ 1 ],
									"out_name" : [ "u481000018" ],
									"dim" : [ 1, 1 ],
									"position" : [ 0 ],
									"engine" : [ "avf" ],
									"adapt" : [ 1 ],
									"loopreport" : [ 0 ],
									"vol" : [ 1 ],
									"automatic" : [ 0 ],
									"loopstart" : [ 0 ],
									"dstrect" : [ 0, 0, 1, 1 ],
									"seamless_loopcount" : [ 32 ],
									"usedstrect" : [ 0 ],
									"texture_name" : [ "u809000016" ],
									"moviefile" : [ "" ],
									"looppoints_secs" : [ 0.0, 0.0 ],
									"time_secs" : [ 0 ],
									"framereport" : [ 0 ],
									"time" : [ 0 ],
									"autostart" : [ 1 ],
									"rate" : [ 1 ],
									"colormode" : [ "argb" ],
									"looppoints" : [ 0, 0 ],
									"loopend" : [ 0 ],
									"unique" : [ 0 ],
									"srcrect" : [ 0, 0, 1, 1 ],
									"drawto" : [ "" ],
									"usesrcrect" : [ 0 ],
									"looppoints_ms" : [ 0, 0 ],
									"output_texture" : [ 0 ],
									"time_ms" : [ 0 ],
									"interp" : [ 0 ]
								}

							}
 ]
					}
,
					"id" : "obj-21",
					"maxclass" : "jit.playlist",
					"numinlets" : 1,
					"numoutlets" : 3,
					"outlettype" : [ "jit_matrix", "", "dictionary" ],
					"output_texture" : 1,
					"patching_rect" : [ 503.0, 128.5, 365.0, 240.0 ]
				}

			}
, 			{
				"box" : 				{
					"id" : "obj-19",
					"maxclass" : "toggle",
					"numinlets" : 1,
					"numoutlets" : 1,
					"outlettype" : [ "int" ],
					"parameter_enable" : 0,
					"patching_rect" : [ 348.0, 381.0, 24.0, 24.0 ]
				}

			}
, 			{
				"box" : 				{
					"id" : "obj-20",
					"maxclass" : "message",
					"numinlets" : 2,
					"numoutlets" : 1,
					"outlettype" : [ "" ],
					"patching_rect" : [ 348.0, 411.0, 97.0, 22.0 ],
					"text" : "blend_enable $1"
				}

			}
, 			{
				"box" : 				{
					"id" : "obj-18",
					"maxclass" : "toggle",
					"numinlets" : 1,
					"numoutlets" : 1,
					"outlettype" : [ "int" ],
					"parameter_enable" : 0,
					"patching_rect" : [ 447.0, 381.0, 24.0, 24.0 ]
				}

			}
, 			{
				"box" : 				{
					"id" : "obj-16",
					"maxclass" : "message",
					"numinlets" : 2,
					"numoutlets" : 1,
					"outlettype" : [ "" ],
					"patching_rect" : [ 447.0, 411.0, 114.0, 22.0 ],
					"text" : "preserve_aspect $1"
				}

			}
, 			{
				"box" : 				{
					"attr" : "output_texture",
					"id" : "obj-13",
					"maxclass" : "attrui",
					"numinlets" : 1,
					"numoutlets" : 1,
					"outlettype" : [ "" ],
					"patching_rect" : [ 503.0, 88.0, 150.0, 22.0 ],
					"text_width" : 115.0
				}

			}
, 			{
				"box" : 				{
					"attr" : "blend",
					"fontface" : 0,
					"fontname" : "Arial",
					"fontsize" : 13.0,
					"id" : "obj-14",
					"maxclass" : "attrui",
					"numinlets" : 1,
					"numoutlets" : 1,
					"outlettype" : [ "" ],
					"patching_rect" : [ 121.0, 411.0, 166.0, 23.0 ],
					"text_width" : 70.0
				}

			}
, 			{
				"box" : 				{
					"fontname" : "Arial",
					"fontsize" : 13.0,
					"id" : "obj-6",
					"maxclass" : "newobj",
					"numinlets" : 1,
					"numoutlets" : 2,
					"outlettype" : [ "jit_matrix", "" ],
					"patching_rect" : [ 316.0, 477.0, 185.0, 23.0 ],
					"text" : "jit.gl.videoplane exampleWorld"
				}

			}
, 			{
				"box" : 				{
					"fontname" : "Arial",
					"fontsize" : 13.0,
					"id" : "obj-4",
					"maxclass" : "newobj",
					"numinlets" : 1,
					"numoutlets" : 2,
					"outlettype" : [ "jit_matrix", "" ],
					"patching_rect" : [ 56.0, 141.0, 59.0, 23.0 ],
					"text" : "jit.matrix"
				}

			}
, 			{
				"box" : 				{
					"fontname" : "Arial",
					"fontsize" : 13.0,
					"id" : "obj-32",
					"maxclass" : "comment",
					"numinlets" : 1,
					"numoutlets" : 0,
					"patching_rect" : [ 217.0, 171.0, 271.0, 21.0 ],
					"text" : "enable output_matrix to record your scene"
				}

			}
, 			{
				"box" : 				{
					"fontname" : "Arial",
					"fontsize" : 13.0,
					"id" : "obj-28",
					"maxclass" : "message",
					"numinlets" : 2,
					"numoutlets" : 1,
					"outlettype" : [ "" ],
					"patching_rect" : [ 180.0, 171.0, 35.0, 23.0 ],
					"text" : "stop"
				}

			}
, 			{
				"box" : 				{
					"fontname" : "Arial",
					"fontsize" : 13.0,
					"id" : "obj-24",
					"maxclass" : "message",
					"numinlets" : 2,
					"numoutlets" : 1,
					"outlettype" : [ "" ],
					"patching_rect" : [ 140.0, 171.0, 38.0, 23.0 ],
					"text" : "write"
				}

			}
, 			{
				"box" : 				{
					"fontface" : 0,
					"fontname" : "Arial",
					"fontsize" : 13.0,
					"id" : "obj-15",
					"maxclass" : "newobj",
					"numinlets" : 1,
					"numoutlets" : 2,
					"outlettype" : [ "jit_matrix", "" ],
					"patching_rect" : [ 56.0, 237.0, 60.0, 23.0 ],
					"text" : "jit.record"
				}

			}
, 			{
				"box" : 				{
					"id" : "obj-7",
					"maxclass" : "toggle",
					"numinlets" : 1,
					"numoutlets" : 1,
					"outlettype" : [ "int" ],
					"parameter_enable" : 0,
					"patching_rect" : [ 263.0, 16.0, 24.0, 24.0 ]
				}

			}
, 			{
				"box" : 				{
					"id" : "obj-5",
					"maxclass" : "message",
					"numinlets" : 2,
					"numoutlets" : 1,
					"outlettype" : [ "" ],
					"patching_rect" : [ 263.0, 52.0, 98.0, 22.0 ],
					"text" : "output_matrix $1"
				}

			}
, 			{
				"box" : 				{
					"fontname" : "Arial",
					"fontsize" : 13.0,
					"id" : "obj-41",
					"maxclass" : "newobj",
					"numinlets" : 1,
					"numoutlets" : 1,
					"outlettype" : [ "jit_matrix" ],
					"patcher" : 					{
						"fileversion" : 1,
						"appversion" : 						{
							"major" : 8,
							"minor" : 1,
							"revision" : 3,
							"architecture" : "x64",
							"modernui" : 1
						}
,
						"classnamespace" : "box",
						"rect" : [ 59.0, 104.0, 377.0, 342.0 ],
						"bglocked" : 0,
						"openinpresentation" : 0,
						"default_fontsize" : 12.0,
						"default_fontface" : 0,
						"default_fontname" : "Verdana",
						"gridonopen" : 1,
						"gridsize" : [ 10.0, 10.0 ],
						"gridsnaponopen" : 1,
						"objectsnaponopen" : 1,
						"statusbarvisible" : 2,
						"toolbarvisible" : 1,
						"lefttoolbarpinned" : 0,
						"toptoolbarpinned" : 0,
						"righttoolbarpinned" : 0,
						"bottomtoolbarpinned" : 0,
						"toolbars_unpinned_last_save" : 0,
						"tallnewobj" : 0,
						"boxanimatetime" : 200,
						"enablehscroll" : 1,
						"enablevscroll" : 1,
						"devicewidth" : 0.0,
						"description" : "",
						"digest" : "",
						"tags" : "",
						"style" : "",
						"subpatcher_template" : "",
						"boxes" : [ 							{
								"box" : 								{
									"id" : "obj-6",
									"maxclass" : "message",
									"numinlets" : 2,
									"numoutlets" : 1,
									"outlettype" : [ "" ],
									"patching_rect" : [ 134.0, 228.0, 90.0, 23.0 ],
									"text" : "automatic $1"
								}

							}
, 							{
								"box" : 								{
									"fontname" : "Verdana",
									"fontsize" : 12.0,
									"id" : "obj-3",
									"maxclass" : "newobj",
									"numinlets" : 1,
									"numoutlets" : 2,
									"outlettype" : [ "int", "clear" ],
									"patching_rect" : [ 184.0, 189.0, 60.0, 23.0 ],
									"text" : "t 0 clear"
								}

							}
, 							{
								"box" : 								{
									"fontname" : "Verdana",
									"fontsize" : 12.0,
									"id" : "obj-2",
									"maxclass" : "newobj",
									"numinlets" : 1,
									"numoutlets" : 1,
									"outlettype" : [ "int" ],
									"patching_rect" : [ 134.0, 189.0, 27.0, 23.0 ],
									"text" : "t 1"
								}

							}
, 							{
								"box" : 								{
									"fontname" : "Arial",
									"fontsize" : 13.0,
									"id" : "obj-38",
									"maxclass" : "newobj",
									"numinlets" : 3,
									"numoutlets" : 3,
									"outlettype" : [ "", "", "" ],
									"patching_rect" : [ 134.0, 149.0, 119.0, 23.0 ],
									"text" : "route open close"
								}

							}
, 							{
								"box" : 								{
									"fontname" : "Arial",
									"fontsize" : 13.0,
									"id" : "obj-28",
									"maxclass" : "newobj",
									"numinlets" : 1,
									"numoutlets" : 2,
									"outlettype" : [ "jit_matrix", "" ],
									"patching_rect" : [ 84.0, 119.0, 69.0, 23.0 ],
									"text" : "jit.grab"
								}

							}
, 							{
								"box" : 								{
									"comment" : "",
									"id" : "obj-39",
									"index" : 1,
									"maxclass" : "inlet",
									"numinlets" : 0,
									"numoutlets" : 1,
									"outlettype" : [ "" ],
									"patching_rect" : [ 84.0, 39.0, 25.0, 25.0 ]
								}

							}
, 							{
								"box" : 								{
									"comment" : "",
									"id" : "obj-40",
									"index" : 1,
									"maxclass" : "outlet",
									"numinlets" : 1,
									"numoutlets" : 0,
									"patching_rect" : [ 84.0, 283.0, 25.0, 25.0 ]
								}

							}
 ],
						"lines" : [ 							{
								"patchline" : 								{
									"destination" : [ "obj-6", 0 ],
									"source" : [ "obj-2", 0 ]
								}

							}
, 							{
								"patchline" : 								{
									"destination" : [ "obj-38", 0 ],
									"source" : [ "obj-28", 1 ]
								}

							}
, 							{
								"patchline" : 								{
									"destination" : [ "obj-40", 0 ],
									"source" : [ "obj-28", 0 ]
								}

							}
, 							{
								"patchline" : 								{
									"destination" : [ "obj-40", 0 ],
									"midpoints" : [ 234.5, 267.0, 93.5, 267.0 ],
									"source" : [ "obj-3", 1 ]
								}

							}
, 							{
								"patchline" : 								{
									"destination" : [ "obj-6", 0 ],
									"source" : [ "obj-3", 0 ]
								}

							}
, 							{
								"patchline" : 								{
									"destination" : [ "obj-2", 0 ],
									"source" : [ "obj-38", 0 ]
								}

							}
, 							{
								"patchline" : 								{
									"destination" : [ "obj-3", 0 ],
									"source" : [ "obj-38", 1 ]
								}

							}
, 							{
								"patchline" : 								{
									"destination" : [ "obj-28", 0 ],
									"source" : [ "obj-39", 0 ]
								}

							}
, 							{
								"patchline" : 								{
									"destination" : [ "obj-28", 0 ],
									"midpoints" : [ 143.5, 261.0, 68.5, 261.0, 68.5, 108.0, 93.5, 108.0 ],
									"source" : [ "obj-6", 0 ]
								}

							}
 ]
					}
,
					"patching_rect" : [ 122.0, 52.0, 66.0, 23.0 ],
					"saved_object_attributes" : 					{
						"description" : "",
						"digest" : "",
						"fontname" : "Verdana",
						"globalpatchername" : "",
						"tags" : ""
					}
,
					"text" : "p grabber"
				}

			}
, 			{
				"box" : 				{
					"fontname" : "Arial",
					"fontsize" : 13.0,
					"id" : "obj-31",
					"maxclass" : "message",
					"numinlets" : 2,
					"numoutlets" : 1,
					"outlettype" : [ "" ],
					"patching_rect" : [ 175.0, 22.0, 50.0, 23.0 ],
					"text" : "close"
				}

			}
, 			{
				"box" : 				{
					"fontname" : "Arial",
					"fontsize" : 13.0,
					"id" : "obj-30",
					"maxclass" : "message",
					"numinlets" : 2,
					"numoutlets" : 1,
					"outlettype" : [ "" ],
					"patching_rect" : [ 122.0, 22.0, 50.0, 23.0 ],
					"text" : "open"
				}

			}
, 			{
				"box" : 				{
					"id" : "obj-3",
					"maxclass" : "toggle",
					"numinlets" : 1,
					"numoutlets" : 1,
					"outlettype" : [ "int" ],
					"parameter_enable" : 0,
					"patching_rect" : [ 56.0, 52.0, 24.0, 24.0 ]
				}

			}
, 			{
				"box" : 				{
					"id" : "obj-1",
					"maxclass" : "newobj",
					"numinlets" : 1,
					"numoutlets" : 3,
					"outlettype" : [ "", "bang", "" ],
					"patching_rect" : [ 56.0, 94.0, 225.0, 22.0 ],
					"text" : "jit.world exampleWorld @fps 30 @fsaa 1"
				}

			}
 ],
		"lines" : [ 			{
				"patchline" : 				{
					"destination" : [ "obj-4", 0 ],
					"source" : [ "obj-1", 0 ]
				}

			}
, 			{
				"patchline" : 				{
					"destination" : [ "obj-21", 0 ],
					"source" : [ "obj-13", 0 ]
				}

			}
, 			{
				"patchline" : 				{
					"destination" : [ "obj-6", 0 ],
					"source" : [ "obj-14", 0 ]
				}

			}
, 			{
				"patchline" : 				{
					"destination" : [ "obj-6", 0 ],
					"source" : [ "obj-16", 0 ]
				}

			}
, 			{
				"patchline" : 				{
					"destination" : [ "obj-16", 0 ],
					"source" : [ "obj-18", 0 ]
				}

			}
, 			{
				"patchline" : 				{
					"destination" : [ "obj-20", 0 ],
					"source" : [ "obj-19", 0 ]
				}

			}
, 			{
				"patchline" : 				{
					"destination" : [ "obj-6", 0 ],
					"source" : [ "obj-20", 0 ]
				}

			}
, 			{
				"patchline" : 				{
					"destination" : [ "obj-6", 0 ],
					"source" : [ "obj-21", 0 ]
				}

			}
, 			{
				"patchline" : 				{
					"destination" : [ "obj-15", 0 ],
					"source" : [ "obj-24", 0 ]
				}

			}
, 			{
				"patchline" : 				{
					"destination" : [ "obj-15", 0 ],
					"source" : [ "obj-28", 0 ]
				}

			}
, 			{
				"patchline" : 				{
					"destination" : [ "obj-1", 0 ],
					"source" : [ "obj-3", 0 ]
				}

			}
, 			{
				"patchline" : 				{
					"destination" : [ "obj-41", 0 ],
					"source" : [ "obj-30", 0 ]
				}

			}
, 			{
				"patchline" : 				{
					"destination" : [ "obj-41", 0 ],
					"source" : [ "obj-31", 0 ]
				}

			}
, 			{
				"patchline" : 				{
					"destination" : [ "obj-15", 0 ],
					"source" : [ "obj-4", 0 ]
				}

			}
, 			{
				"patchline" : 				{
					"destination" : [ "obj-1", 0 ],
					"source" : [ "obj-41", 0 ]
				}

			}
, 			{
				"patchline" : 				{
					"destination" : [ "obj-1", 0 ],
					"source" : [ "obj-5", 0 ]
				}

			}
, 			{
				"patchline" : 				{
					"destination" : [ "obj-5", 0 ],
					"source" : [ "obj-7", 0 ]
				}

			}
 ],
		"dependency_cache" : [ 			{
				"name" : "crashtest.mov",
				"bootpath" : "C74:/media/jitter",
				"type" : "MooV",
				"implicit" : 1
			}
, 			{
				"name" : "dishes.mov",
				"bootpath" : "C74:/media/jitter",
				"type" : "MooV",
				"implicit" : 1
			}
, 			{
				"name" : "dozer.mov",
				"bootpath" : "C74:/media/jitter",
				"type" : "MooV",
				"implicit" : 1
			}
, 			{
				"name" : "dvducks.mov",
				"bootpath" : "C74:/media/jitter",
				"type" : "MooV",
				"implicit" : 1
			}
, 			{
				"name" : "garbage.mov",
				"bootpath" : "C74:/media/jitter",
				"type" : "MooV",
				"implicit" : 1
			}
 ],
		"autosave" : 0
	}

}
